<svg width="32" height="32" viewBox="0 0 32 32" fill="none" xmlns="http://www.w3.org/2000/svg">
<path d="M9.40798 3.22424L10.964 2.75624C11.8164 2.4992 12.7332 2.56108 13.5433 2.93031C14.3534 3.29955 15.0015 3.95093 15.3667 4.7629L16.5693 7.43757C16.8833 8.13597 16.9707 8.91514 16.8193 9.66575C16.668 10.4164 16.2854 11.1008 15.7253 11.6229L13.7333 13.4802C13.6751 13.5345 13.6382 13.6078 13.6293 13.6869C13.5707 14.2162 13.9293 15.2469 14.756 16.6802C15.3573 17.7216 15.9027 18.4536 16.3653 18.8629C16.688 19.1496 16.8653 19.2109 16.9413 19.1896L19.6213 18.3696C20.3532 18.1457 21.1368 18.1565 21.8622 18.4004C22.5877 18.6443 23.2186 19.109 23.6667 19.7296L25.3747 22.0976C25.8941 22.8177 26.1345 23.7018 26.0514 24.5858C25.9683 25.4698 25.5672 26.2936 24.9227 26.9042L23.7413 28.0242C23.1143 28.618 22.3443 29.0392 21.5061 29.2469C20.668 29.4547 19.7903 29.4418 18.9587 29.2096C15.2867 28.1842 11.9947 25.0856 9.04532 19.9776C6.09198 14.8629 5.05598 10.4576 6.01065 6.76024C6.22555 5.92868 6.65103 5.1665 7.24608 4.54717C7.84113 3.92783 8.58569 3.47221 9.40798 3.22424ZM9.98532 5.14024C9.49208 5.28884 9.04542 5.56195 8.68836 5.93326C8.33129 6.30457 8.07586 6.76157 7.94665 7.26024C7.14398 10.3696 8.06265 14.2749 10.7773 18.9776C13.488 23.6736 16.4067 26.4202 19.4973 27.2842C19.9962 27.4232 20.5225 27.4306 21.0251 27.3059C21.5276 27.1811 21.9894 26.9283 22.3653 26.5722L23.548 25.4522C23.8411 25.1746 24.0234 24.8001 24.0612 24.3981C24.099 23.9962 23.9896 23.5943 23.7533 23.2669L22.0467 20.9002C21.843 20.6178 21.556 20.4063 21.226 20.2954C20.896 20.1844 20.5395 20.1796 20.2067 20.2816L17.52 21.1042C15.96 21.5682 14.544 20.3136 13.024 17.6802C12 15.9069 11.5227 14.5336 11.6413 13.4656C11.704 12.9109 11.9613 12.3989 12.3693 12.0176L14.3613 10.1602C14.616 9.92292 14.79 9.61181 14.8589 9.27057C14.9277 8.92933 14.888 8.57509 14.7453 8.25757L13.5427 5.5829C13.3767 5.21411 13.0823 4.91825 12.7143 4.75046C12.3463 4.58267 11.9299 4.55439 11.5427 4.6709L9.98532 5.14024Z" fill="#FAFAFA"/>
</svg>
