<svg width="34" height="34" viewBox="0 0 34 34" fill="none" xmlns="http://www.w3.org/2000/svg">
<g clip-path="url(#clip0_404_3904)">
<path d="M28.9021 4.94237C27.3434 3.36918 25.4871 2.12195 23.4415 1.27335C21.3959 0.424757 19.2019 -0.00823236 16.9873 -0.000383454C7.70738 -0.000383454 0.1445 7.56037 0.136 16.8424C0.136 19.8152 0.91375 22.7074 2.38213 25.268L0 33.9996L8.9335 31.6579C11.4049 33.0028 14.1736 33.7078 16.9873 33.7085H16.9958C26.2778 33.7085 33.8385 26.1477 33.847 16.8572C33.8491 14.6431 33.4131 12.4504 32.5641 10.4055C31.715 8.36058 30.4698 6.50388 28.9 4.94237H28.9021ZM16.9873 30.8567C14.4776 30.8576 12.0141 30.1823 9.85575 28.9017L9.34575 28.5957L4.046 29.9855L5.46125 24.8154L5.12975 24.282C3.72684 22.0514 2.98488 19.4689 2.98988 16.8339C2.98988 9.12862 9.2735 2.84287 16.9958 2.84287C18.8355 2.83957 20.6576 3.20045 22.3572 3.90471C24.0567 4.60897 25.6001 5.64268 26.8983 6.94624C28.2009 8.24472 29.2337 9.78827 29.9368 11.4879C30.64 13.1874 30.9997 15.0094 30.9953 16.8487C30.9868 24.5816 24.7031 30.8567 16.9873 30.8567ZM24.6691 20.372C24.2505 20.1616 22.1829 19.1437 21.794 18.9992C21.4073 18.8611 21.1246 18.7889 20.8484 19.2096C20.5658 19.6282 19.7583 20.5824 19.516 20.8565C19.2738 21.1391 19.023 21.171 18.6023 20.9627C18.1836 20.7502 16.8258 20.3082 15.2193 18.8696C13.9655 17.754 13.1261 16.3727 12.8754 15.9541C12.6331 15.5334 12.852 15.3081 13.0624 15.0977C13.2473 14.9107 13.481 14.6047 13.6914 14.3625C13.9039 14.1202 13.974 13.9417 14.1121 13.6612C14.2503 13.3765 14.1844 13.1342 14.0803 12.9239C13.974 12.7135 13.1346 10.6374 12.7798 9.80012C12.4398 8.97349 12.0934 9.08824 11.8341 9.07762C11.5919 9.06274 11.3093 9.06274 11.0266 9.06274C10.8132 9.06805 10.6032 9.11741 10.4097 9.20773C10.2163 9.29806 10.0436 9.42739 9.9025 9.58762C9.51575 10.0084 8.43413 11.0262 8.43413 13.1024C8.43413 15.1785 9.94288 17.1739 10.1554 17.4565C10.3636 17.7391 13.1176 21.987 17.3443 23.8145C18.343 24.2501 19.1293 24.5072 19.7434 24.7027C20.7528 25.0257 21.6644 24.9769 22.3911 24.8727C23.1986 24.7495 24.8795 23.8527 25.2344 22.8689C25.5829 21.8829 25.5829 21.0414 25.4766 20.865C25.3725 20.6865 25.0899 20.5824 24.6691 20.372Z" fill="#FAFAFA"/>
</g>
<defs>
<clipPath id="clip0_404_3904">
<rect width="34" height="34" fill="white"/>
</clipPath>
</defs>
</svg>
